<svg width="55" height="55" viewBox="0 0 55 55" fill="none" xmlns="http://www.w3.org/2000/svg">
<rect width="55" height="55" rx="10" fill="#7C08F9"/>
<path d="M25.1665 39.3334H18.0832C17.3008 39.3334 16.6665 38.6992 16.6665 37.9167L16.6665 18.0834C16.6665 17.301 17.3008 16.6667 18.0832 16.6667L37.9165 16.6667C38.6989 16.6667 39.3332 17.301 39.3332 18.0834V25.1667" stroke="white" stroke-width="3" stroke-linecap="round" stroke-linejoin="round"/>
<path d="M33.6665 33.6667L37.9165 37.9167" stroke="white" stroke-width="3" stroke-linecap="round" stroke-linejoin="round"/>
<path d="M30.1248 35.0834C32.8632 35.0834 35.0832 32.8635 35.0832 30.1251C35.0832 27.3867 32.8632 25.1667 30.1248 25.1667C27.3864 25.1667 25.1665 27.3867 25.1665 30.1251C25.1665 32.8635 27.3864 35.0834 30.1248 35.0834Z" stroke="white" stroke-width="3" stroke-linecap="round" stroke-linejoin="round"/>
</svg>
