<svg width="1047" height="296" viewBox="0 0 1047 296" fill="none" xmlns="http://www.w3.org/2000/svg">
<path d="M645.66 115.254H632.038V75.4097H645.691C659.932 75.4097 666.407 76.7002 666.407 95.4313C666.407 112.666 660.031 115.285 645.691 115.285L645.66 115.254ZM647.577 130.228C671.592 130.228 682.55 122.661 682.55 95.4618C682.55 66.1702 670.493 60.4966 647.577 60.4966H616.598V130.228H647.577ZM604.144 114.788H564.765V60.4966H549.325V130.228H604.113L604.144 114.788ZM500.241 116.781C485.496 116.781 479.815 113.796 479.815 95.4618C479.815 76.4329 485.496 73.9436 500.241 73.9436C514.986 73.9436 520.759 76.5322 520.759 95.4618C520.759 113.788 514.986 116.781 500.241 116.781ZM500.241 131.725C525.241 131.725 536.894 123.654 536.894 95.4618C536.894 66.1702 524.141 59 500.241 59C476.34 59 463.68 66.1702 463.68 95.4618C463.68 123.654 475.233 131.725 500.241 131.725ZM451.225 130.198V60.4661H435.793V87.696H400.92V60.4661H385.48V130.198H400.92V103.006H435.793V130.198H451.225ZM339.45 131.725C364.855 131.725 371.926 123.555 371.926 109.512C371.926 96.6606 365.053 92.1783 351.4 89.5821L332.31 85.9015C326.14 84.7027 323.842 82.9082 323.842 79.3193C323.842 75.9366 326.438 72.9509 339.488 72.9509C349.949 72.9509 354.76 75.0355 355.325 84.3056H371.269C370.567 65.4753 360.709 59 339.29 59C315.679 59 307.806 67.9646 307.806 79.6171C307.806 91.2697 313.488 97.1799 325.835 99.6387L346.361 103.823C351.637 104.915 355.722 105.618 355.722 110.398C355.722 115.178 352.668 117.766 339.389 117.766C328.431 117.766 323.353 115.178 322.949 105.717H306.111C306.31 124.646 316.175 131.679 339.488 131.679L339.45 131.725ZM294.856 114.743H248.46V103.006H293.764V87.696H248.46V75.906H294.275V60.4661H233.02V130.198H294.787L294.856 114.743ZM138.876 130.198V60.4661H123.436V87.696H88.5698V60.4661H73.1298V130.198H88.5698V103.006H123.436V130.198H138.876ZM62.1646 60.4661H0V75.906H23.3127V130.198H38.7221V75.906H62.1646V60.4661ZM171.252 90.6511V75.906H194.496C200.177 75.906 203.56 79.2888 203.56 83.374C203.56 87.4593 200.177 90.6511 194.496 90.6511H171.252ZM171.252 106.091H190.976L203.827 130.198H221.566L206.92 103.304C214.991 99.318 218.977 91.4453 218.977 83.1755C218.977 71.3245 210.577 60.4661 194.168 60.4661H155.812V130.198H171.252V106.091Z" fill="white"/>
<path fill-rule="evenodd" clip-rule="evenodd" d="M898.27 279.346C971.054 279.346 1030.06 220.343 1030.06 147.559C1030.06 74.7754 971.054 15.7725 898.27 15.7725C825.486 15.7725 766.483 74.7754 766.483 147.559C766.483 220.343 825.486 279.346 898.27 279.346ZM1045.83 147.559C1045.83 229.054 979.765 295.118 898.27 295.118C816.775 295.118 750.711 229.054 750.711 147.559C750.711 66.0645 816.775 0 898.27 0C979.765 0 1045.83 66.0645 1045.83 147.559Z" fill="#BD00FF"/>
<path d="M930.508 78.041H913.354V92.0206C913.16 92.0962 912.965 92.1729 912.772 92.2506C905.442 95.1942 899.674 99.2889 895.467 104.535C891.302 109.78 889.241 115.913 889.282 122.932C889.241 131.499 892.344 138.311 898.591 143.368C904.838 148.425 913.355 152.143 924.142 154.52L938.073 157.69C942.738 158.709 946.674 159.841 949.881 161.087C953.129 162.332 955.586 163.842 957.252 165.615C958.96 167.389 959.814 169.578 959.814 172.182C959.814 174.975 958.877 177.447 957.003 179.598C955.128 181.749 952.484 183.428 949.069 184.636C945.695 185.844 941.718 186.447 937.136 186.447C932.472 186.447 928.286 185.806 924.579 184.523C920.914 183.202 917.978 181.258 915.771 178.692C913.605 176.088 912.376 172.842 912.085 168.955H885.909C886.117 177.296 888.345 184.296 892.593 189.957C896.883 195.58 902.839 199.826 910.461 202.694C911.405 203.048 912.37 203.379 913.354 203.689V216.79H930.508V206.767C932.75 206.92 935.064 206.996 937.449 206.996C939.18 206.996 940.868 206.957 942.515 206.879V216.79H959.669V204.236C961.211 203.794 962.696 203.299 964.124 202.751C971.538 199.882 977.202 195.863 981.117 190.693C985.074 185.485 987.073 179.334 987.114 172.239C987.073 167.408 986.094 163.125 984.178 159.388C982.304 155.652 979.659 152.407 976.244 149.652C972.829 146.897 968.789 144.576 964.124 142.689C959.46 140.802 954.337 139.292 948.756 138.16L937.261 135.669C934.471 135.103 931.847 134.424 929.39 133.631C926.932 132.801 924.767 131.839 922.893 130.744C921.018 129.612 919.54 128.273 918.457 126.725C917.416 125.178 916.937 123.366 917.02 121.291C917.02 118.8 917.811 116.573 919.394 114.611C921.018 112.649 923.351 111.12 926.391 110.026C929.431 108.894 933.159 108.327 937.574 108.327C944.071 108.327 949.214 109.592 953.004 112.12C956.794 114.649 958.939 118.196 959.439 122.763H985.365C985.24 115.856 983.199 109.78 979.243 104.535C975.286 99.2889 969.747 95.1942 962.625 92.2506C961.662 91.8502 960.677 91.477 959.669 91.131V78.041H942.515V87.9636C940.966 87.8779 939.381 87.8351 937.761 87.8351C935.272 87.8351 932.854 87.9398 930.508 88.1493V78.041Z" fill="#BD00FF"/>
<path fill-rule="evenodd" clip-rule="evenodd" d="M850.36 113.68H825.693V138.347H801.027V163.014H825.693V187.68H850.36V163.014H875.027V138.347H850.36V113.68ZM850.36 138.347V163.014H825.693V138.347H850.36Z" fill="#BD00FF"/>
<path d="M466.836 192.341V198.023H444.223V192.341H466.836ZM450.814 181.886H457.518V223.477C457.518 225.371 457.793 226.792 458.342 227.739C458.91 228.667 459.63 229.292 460.501 229.614C461.391 229.917 462.329 230.068 463.314 230.068C464.052 230.068 464.658 230.03 465.132 229.955C465.605 229.86 465.984 229.784 466.268 229.727L467.632 235.75C467.177 235.92 466.543 236.091 465.728 236.261C464.914 236.451 463.882 236.545 462.632 236.545C460.738 236.545 458.882 236.138 457.064 235.324C455.264 234.509 453.768 233.269 452.575 231.602C451.401 229.936 450.814 227.833 450.814 225.295V181.886Z" fill="white"/>
<path d="M484.564 209.727V235.977H477.859V177.795H484.564V199.159H485.132C486.155 196.905 487.689 195.116 489.734 193.79C491.799 192.445 494.545 191.773 497.973 191.773C500.946 191.773 503.55 192.369 505.785 193.562C508.02 194.737 509.753 196.545 510.984 198.989C512.234 201.413 512.859 204.5 512.859 208.25V235.977H506.155V208.705C506.155 205.239 505.255 202.559 503.456 200.665C501.675 198.752 499.204 197.795 496.041 197.795C493.844 197.795 491.874 198.259 490.132 199.187C488.408 200.116 487.045 201.47 486.041 203.25C485.056 205.03 484.564 207.189 484.564 209.727Z" fill="white"/>
<path d="M564.216 177.795H571.261V216.318C571.261 220.295 570.324 223.847 568.449 226.972C566.593 230.078 563.969 232.53 560.579 234.33C557.189 236.11 553.212 237 548.647 237C544.083 237 540.106 236.11 536.716 234.33C533.326 232.53 530.693 230.078 528.818 226.972C526.962 223.847 526.034 220.295 526.034 216.318V177.795H533.079V215.75C533.079 218.591 533.704 221.119 534.954 223.335C536.204 225.532 537.985 227.265 540.295 228.534C542.625 229.784 545.409 230.409 548.647 230.409C551.886 230.409 554.67 229.784 557 228.534C559.329 227.265 561.11 225.532 562.341 223.335C563.591 221.119 564.216 218.591 564.216 215.75V177.795Z" fill="white"/>
<path d="M617.149 192.341C616.808 189.462 615.425 187.227 613.001 185.636C610.577 184.045 607.603 183.25 604.081 183.25C601.505 183.25 599.251 183.667 597.319 184.5C595.406 185.333 593.91 186.479 592.831 187.937C591.77 189.396 591.24 191.053 591.24 192.909C591.24 194.462 591.609 195.797 592.348 196.915C593.105 198.013 594.071 198.932 595.245 199.67C596.42 200.39 597.651 200.987 598.939 201.46C600.227 201.915 601.41 202.284 602.49 202.568L608.399 204.159C609.914 204.557 611.6 205.106 613.456 205.807C615.331 206.508 617.121 207.464 618.825 208.676C620.549 209.869 621.969 211.403 623.086 213.278C624.204 215.153 624.763 217.455 624.763 220.182C624.763 223.326 623.939 226.167 622.291 228.705C620.662 231.242 618.276 233.259 615.132 234.756C612.007 236.252 608.21 237 603.74 237C599.573 237 595.965 236.328 592.916 234.983C589.886 233.638 587.499 231.763 585.757 229.358C584.033 226.953 583.058 224.159 582.831 220.977H590.103C590.293 223.174 591.031 224.992 592.319 226.432C593.626 227.852 595.274 228.913 597.263 229.614C599.27 230.295 601.429 230.636 603.74 230.636C606.429 230.636 608.844 230.201 610.984 229.33C613.124 228.439 614.819 227.208 616.069 225.636C617.319 224.045 617.944 222.189 617.944 220.068C617.944 218.136 617.405 216.564 616.325 215.352C615.246 214.14 613.825 213.155 612.064 212.398C610.302 211.64 608.399 210.977 606.353 210.409L599.194 208.364C594.649 207.057 591.05 205.191 588.399 202.767C585.747 200.343 584.422 197.17 584.422 193.25C584.422 189.992 585.302 187.152 587.064 184.727C588.844 182.284 591.23 180.39 594.223 179.045C597.234 177.682 600.596 177 604.308 177C608.058 177 611.391 177.672 614.308 179.017C617.225 180.343 619.535 182.161 621.24 184.472C622.963 186.782 623.872 189.405 623.967 192.341H617.149Z" fill="white"/>
<path d="M654.301 235.977H636.346V177.795H655.096C660.74 177.795 665.57 178.96 669.585 181.29C673.6 183.6 676.678 186.924 678.818 191.261C680.958 195.58 682.028 200.75 682.028 206.773C682.028 212.833 680.949 218.051 678.79 222.426C676.63 226.782 673.486 230.134 669.358 232.483C665.229 234.812 660.21 235.977 654.301 235.977ZM643.392 229.727H653.846C658.657 229.727 662.644 228.799 665.807 226.943C668.969 225.087 671.327 222.445 672.88 219.017C674.433 215.589 675.21 211.508 675.21 206.773C675.21 202.076 674.443 198.032 672.909 194.642C671.375 191.233 669.083 188.619 666.034 186.801C662.985 184.964 659.187 184.045 654.642 184.045H643.392V229.727Z" fill="white"/>
</svg>
