<svg width="63" height="63" viewBox="0 0 63 63" fill="none" xmlns="http://www.w3.org/2000/svg">
<rect width="63" height="63" rx="15" fill="#373737"/>
<path d="M24.5 42C24.5 39.5147 27.8579 37.5 32 37.5C36.1421 37.5 39.5 39.5147 39.5 42" stroke="white" stroke-width="2.5" stroke-linecap="round" stroke-linejoin="round"/>
<path d="M41 33.3743C43.6489 34.0687 45.5 35.6545 45.5 37.4998" stroke="white" stroke-width="2.5" stroke-linecap="round" stroke-linejoin="round"/>
<path d="M23 33.3743C20.3511 34.0687 18.5 35.6545 18.5 37.4998" stroke="white" stroke-width="2.5" stroke-linecap="round" stroke-linejoin="round"/>
<path d="M32 33C34.4853 33 36.5 30.9853 36.5 28.5C36.5 26.0147 34.4853 24 32 24C29.5147 24 27.5 26.0147 27.5 28.5C27.5 30.9853 29.5147 33 32 33Z" stroke="white" stroke-width="2.5" stroke-linecap="round" stroke-linejoin="round"/>
<path d="M41 27.3542C41.9206 26.5302 42.5 25.3327 42.5 24C42.5 21.5147 40.4853 19.5 38 19.5C36.8475 19.5 35.7961 19.9333 35 20.6458" stroke="white" stroke-width="2.5" stroke-linecap="round" stroke-linejoin="round"/>
<path d="M23 27.3542C22.0794 26.5302 21.5 25.3327 21.5 24C21.5 21.5147 23.5147 19.5 26 19.5C27.1525 19.5 28.2039 19.9333 29 20.6458" stroke="white" stroke-width="2.5" stroke-linecap="round" stroke-linejoin="round"/>
</svg>
