<svg width="36" height="29" viewBox="0 0 36 29" fill="none" xmlns="http://www.w3.org/2000/svg">
<path d="M30.4755 3.23336C28.181 2.18054 25.7205 1.40486 23.1478 0.960604C23.101 0.95203 23.0542 0.973457 23.0301 1.01631C22.7136 1.57913 22.3631 2.31338 22.1176 2.8905C19.3506 2.47624 16.5978 2.47624 13.8875 2.8905C13.642 2.30055 13.2787 1.57913 12.9609 1.01631C12.9367 0.974887 12.8899 0.95346 12.8431 0.960604C10.2719 1.40344 7.81134 2.17912 5.5154 3.23336C5.49553 3.24193 5.47849 3.25623 5.46718 3.27479C0.800088 10.2473 -0.478425 17.0485 0.14877 23.7653C0.151608 23.7982 0.170055 23.8296 0.195597 23.8496C3.27481 26.1109 6.25756 27.4837 9.18492 28.3937C9.23177 28.408 9.28141 28.3908 9.31122 28.3522C10.0037 27.4066 10.621 26.4095 11.1502 25.3609C11.1814 25.2995 11.1516 25.2267 11.0878 25.2024C10.1087 24.831 9.1764 24.3781 8.27959 23.8639C8.20866 23.8225 8.20298 23.721 8.26824 23.6724C8.45696 23.531 8.64573 23.3839 8.82593 23.2353C8.85854 23.2082 8.90397 23.2025 8.9423 23.2196C14.8339 25.9095 21.2123 25.9095 27.0344 23.2196C27.0728 23.201 27.1182 23.2068 27.1522 23.2339C27.3325 23.3825 27.5212 23.531 27.7113 23.6724C27.7766 23.721 27.7723 23.8225 27.7014 23.8639C26.8046 24.3881 25.8723 24.831 24.8918 25.201C24.8279 25.2253 24.7995 25.2995 24.8308 25.3609C25.3714 26.408 25.9887 27.4051 26.6683 28.3508C26.6967 28.3908 26.7478 28.408 26.7946 28.3937C29.7362 27.4837 32.7189 26.1109 35.7981 23.8496C35.8251 23.8296 35.8422 23.7996 35.845 23.7667C36.5956 16.0013 34.5877 9.25596 30.5223 3.27621C30.5124 3.25623 30.4954 3.24193 30.4755 3.23336ZM12.03 19.6755C10.2562 19.6755 8.7947 18.047 8.7947 16.0471C8.7947 14.0472 10.2279 12.4187 12.03 12.4187C13.8463 12.4187 15.2937 14.0615 15.2653 16.0471C15.2653 18.047 13.8321 19.6755 12.03 19.6755ZM23.9921 19.6755C22.2184 19.6755 20.7568 18.047 20.7568 16.0471C20.7568 14.0472 22.19 12.4187 23.9921 12.4187C25.8084 12.4187 27.2558 14.0615 27.2275 16.0471C27.2275 18.047 25.8084 19.6755 23.9921 19.6755Z" fill="#7C08F9"/>
</svg>
