<svg width="25" height="25" viewBox="0 0 25 25" fill="none" xmlns="http://www.w3.org/2000/svg">
<circle cx="12.5" cy="12.5" r="12.5" fill="#7C08F9"/>
<path d="M19.8605 9.9001C19.8605 9.9001 19.7238 9.00381 19.3027 8.61025C18.7695 8.09229 18.1734 8.08975 17.9 8.05928C15.9422 7.92725 13.0027 7.92725 13.0027 7.92725H12.9973C12.9973 7.92725 10.0578 7.92725 8.1 8.05928C7.82656 8.08975 7.23047 8.09229 6.69727 8.61025C6.27617 9.00381 6.14219 9.9001 6.14219 9.9001C6.14219 9.9001 6 10.9538 6 12.005V12.9901C6 14.0413 6.13945 15.095 6.13945 15.095C6.13945 15.095 6.27617 15.9913 6.69453 16.3849C7.22773 16.9028 7.92773 16.8851 8.23945 16.9409C9.36055 17.0399 13 17.0704 13 17.0704C13 17.0704 15.9422 17.0653 17.9 16.9358C18.1734 16.9054 18.7695 16.9028 19.3027 16.3849C19.7238 15.9913 19.8605 15.095 19.8605 15.095C19.8605 15.095 20 14.0438 20 12.9901V12.005C20 10.9538 19.8605 9.9001 19.8605 9.9001ZM11.5535 14.186V10.5323L15.3352 12.3655L11.5535 14.186Z" fill="white"/>
</svg>
