<svg width="25" height="25" viewBox="0 0 25 25" fill="none" xmlns="http://www.w3.org/2000/svg">
<circle cx="12.5" cy="12.5" r="12.5" fill="#7C08F9"/>
<path d="M9.40426 19C14.686 19 17.5757 14.7675 17.5757 11.0983C17.5757 10.9793 17.5729 10.8577 17.5675 10.7387C18.1296 10.3456 18.6147 9.85864 19 9.30079C18.4765 9.52603 17.9206 9.67313 17.3514 9.73707C17.9507 9.38969 18.3995 8.84398 18.6145 8.20109C18.0507 8.5242 17.4341 8.75212 16.7912 8.87508C16.358 8.43 15.7852 8.13529 15.1615 8.03654C14.5377 7.93779 13.8977 8.04049 13.3403 8.32876C12.783 8.61703 12.3394 9.07482 12.0781 9.63135C11.8168 10.1879 11.7523 10.8121 11.8947 11.4076C10.7531 11.3522 9.6363 11.0655 8.61666 10.5659C7.59702 10.0664 6.69732 9.36517 5.9759 8.50781C5.60923 9.11912 5.49703 9.8425 5.6621 10.5309C5.82717 11.2194 6.25712 11.8212 6.86457 12.2141C6.40853 12.2001 5.96249 12.0814 5.56328 11.8677V11.9021C5.56287 12.5436 5.79222 13.1655 6.21235 13.662C6.63247 14.1585 7.21744 14.499 7.86781 14.6255C7.44537 14.7373 7.00199 14.7536 6.57199 14.6731C6.75552 15.2249 7.11258 15.7074 7.59337 16.0534C8.07415 16.3995 8.65465 16.5917 9.25387 16.6034C8.23658 17.3761 6.97993 17.7952 5.68633 17.7932C5.45692 17.7929 5.22773 17.7793 5 17.7525C6.31417 18.5678 7.84289 19.0008 9.40426 19Z" fill="white"/>
</svg>
