<svg width="41" height="41" viewBox="0 0 41 41" fill="none" xmlns="http://www.w3.org/2000/svg">
<g clip-path="url(#clip0_2465_1761)">
<path fill-rule="evenodd" clip-rule="evenodd" d="M20.5006 0.854004C15.6339 0.856529 10.9268 2.5802 7.221 5.71681C3.51518 8.85342 1.05226 13.1984 0.272652 17.9749C-0.506961 22.7514 0.447555 27.6479 2.96554 31.7888C5.48353 35.9297 9.40078 39.0451 14.0169 40.5778C15.0352 40.7668 15.4188 40.1357 15.4188 39.599C15.4188 39.0623 15.3984 37.5063 15.3917 35.8052C9.68873 37.0371 8.48365 33.3986 8.48365 33.3986C7.55353 31.0359 6.20927 30.4148 6.20927 30.4148C4.34903 29.1525 6.34846 29.1761 6.34846 29.1761C8.40898 29.3212 9.49186 31.2789 9.49186 31.2789C11.3182 34.3943 14.2884 33.4931 15.4562 32.9665C15.6395 31.6468 16.1724 30.749 16.7597 30.2393C12.2041 29.7263 7.41774 27.9779 7.41774 20.1674C7.38951 18.1418 8.14547 16.183 9.5292 14.6961C9.31873 14.183 8.61604 12.1106 9.72947 9.29562C9.72947 9.29562 11.4505 8.74882 15.3679 11.3849C18.728 10.4713 22.2731 10.4713 25.6332 11.3849C29.5472 8.74882 31.2648 9.29562 31.2648 9.29562C32.3816 12.1039 31.679 14.1763 31.4685 14.6961C32.8566 16.1832 33.6142 18.1455 33.5833 20.1742C33.5833 28.0015 28.7868 29.7263 24.2244 30.2292C24.9577 30.8637 25.6128 32.1025 25.6128 34.0061C25.6128 36.7334 25.5891 38.9273 25.5891 39.599C25.5891 40.1424 25.9591 40.777 26.9978 40.5778C31.6144 39.0449 35.5321 35.929 38.05 31.7874C40.5679 27.6457 41.522 22.7485 40.7415 17.9716C39.961 13.1947 37.4968 8.84961 33.7898 5.71354C30.0827 2.57747 25.3746 0.854928 20.5073 0.854004H20.5006Z" fill="#7C08F9"/>
<path d="M13.7142 34.1242C13.7142 34.2896 13.5241 34.4314 13.2797 34.4348C13.0352 34.4381 12.835 34.3031 12.835 34.1377C12.835 33.9723 13.025 33.8306 13.2695 33.8272C13.5139 33.8238 13.7142 33.9555 13.7142 34.1242Z" fill="#7C08F9"/>
<path d="M15.2753 33.8644C15.3058 34.0297 15.1361 34.2019 14.8917 34.2424C14.6473 34.2829 14.4334 34.185 14.4029 34.023C14.3723 33.861 14.5488 33.6855 14.7864 33.6416C15.0241 33.5977 15.2447 33.699 15.2753 33.8644Z" fill="#7C08F9"/>
<path d="M12.0374 34.0094C11.9865 34.1681 11.7556 34.2389 11.5248 34.1714C11.294 34.1039 11.1412 33.9149 11.1853 33.7529C11.2295 33.5909 11.4637 33.5166 11.6979 33.5909C11.9321 33.6651 12.0815 33.844 12.0374 34.0094Z" fill="#7C08F9"/>
<path d="M10.4998 33.348C10.3878 33.4728 10.1604 33.4391 9.97368 33.2703C9.78698 33.1016 9.74283 32.872 9.85486 32.7505C9.96688 32.629 10.1943 32.6628 10.3878 32.8282C10.5813 32.9936 10.6186 33.2265 10.4998 33.348Z" fill="#7C08F9"/>
<path d="M9.40299 32.2141C9.27739 32.3019 9.06352 32.2141 8.94471 32.0386C8.91185 32.0071 8.88573 31.9694 8.86788 31.9276C8.85003 31.8859 8.84082 31.841 8.84082 31.7956C8.84082 31.7502 8.85003 31.7053 8.86788 31.6636C8.88573 31.6218 8.91185 31.5841 8.94471 31.5526C9.07031 31.4682 9.28418 31.5526 9.40299 31.7247C9.5218 31.8968 9.52519 32.1264 9.40299 32.2141Z" fill="#7C08F9"/>
<path d="M8.59518 31.043C8.52488 31.0782 8.44445 31.0881 8.36766 31.0708C8.29088 31.0536 8.22251 31.0103 8.17425 30.9485C8.04186 30.8067 8.01469 30.611 8.11653 30.5232C8.21837 30.4355 8.40169 30.476 8.53408 30.6177C8.66647 30.7595 8.69702 30.9553 8.59518 31.043Z" fill="#7C08F9"/>
<path d="M7.76342 30.1216C7.71929 30.2228 7.55635 30.2532 7.42396 30.1823C7.29157 30.1114 7.19313 29.9798 7.24066 29.8752C7.28818 29.7705 7.44773 29.7435 7.58012 29.8144C7.71251 29.8853 7.81434 30.0203 7.76342 30.1216Z" fill="#7C08F9"/>
</g>
<defs>
<clipPath id="clip0_2465_1761">
<rect width="41" height="41" fill="white"/>
</clipPath>
</defs>
</svg>
