<svg width="180" height="152" viewBox="0 0 180 152" fill="none" xmlns="http://www.w3.org/2000/svg">
<path d="M121.561 148.611H118.996V141.095H121.566C124.248 141.095 125.467 141.339 125.467 144.872C125.467 148.123 124.266 148.617 121.566 148.617L121.561 148.611ZM121.922 151.435C126.443 151.435 128.506 150.008 128.506 144.878C128.506 139.352 126.236 138.282 121.922 138.282H116.089V151.435H121.922ZM113.744 148.523H106.33V138.282H103.423V151.435H113.738L113.744 148.523ZM94.182 148.899C91.4059 148.899 90.3363 148.336 90.3363 144.878C90.3363 141.288 91.4059 140.819 94.182 140.819C96.9582 140.819 98.045 141.307 98.045 144.878C98.045 148.334 96.9582 148.899 94.182 148.899ZM94.182 151.718C98.8889 151.718 101.083 150.195 101.083 144.878C101.083 139.352 98.6819 138 94.182 138C89.6822 138 87.2986 139.352 87.2986 144.878C87.2986 150.195 89.4737 151.718 94.182 151.718ZM84.9537 151.43V138.277H82.0483V143.413H75.4825V138.277H72.5756V151.43H75.4825V146.301H82.0483V151.43H84.9537ZM63.9094 151.718C68.6925 151.718 70.0237 150.177 70.0237 147.528C70.0237 145.104 68.7298 144.258 66.1593 143.769L62.5652 143.074C61.4036 142.848 60.9708 142.51 60.9708 141.833C60.9708 141.195 61.4596 140.631 63.9166 140.631C65.8862 140.631 66.7919 141.025 66.8983 142.773H69.9001C69.7678 139.221 67.9118 138 63.8792 138C59.434 138 57.9518 139.691 57.9518 141.889C57.9518 144.087 59.0214 145.202 61.3461 145.665L65.2105 146.455C66.2039 146.661 66.973 146.793 66.973 147.695C66.973 148.597 66.398 149.085 63.8979 149.085C61.8349 149.085 60.8788 148.597 60.8026 146.812H57.6326C57.67 150.383 59.5274 151.709 63.9166 151.709L63.9094 151.718ZM55.5135 148.514H46.7783V146.301H55.3079V143.413H46.7783V141.189H55.4042V138.277H43.8714V151.43H55.5006L55.5135 148.514ZM26.1466 151.43V138.277H23.2397V143.413H16.6753V138.277H13.7684V151.43H16.6753V146.301H23.2397V151.43H26.1466ZM11.7039 138.277H0V141.189H4.38916V151.43H7.29034V141.189H11.7039V138.277ZM32.2422 143.97V141.189H36.6184C37.6881 141.189 38.3249 141.827 38.3249 142.598C38.3249 143.368 37.6881 143.97 36.6184 143.97H32.2422ZM32.2422 146.883H35.9557L38.3753 151.43H41.7149L38.9575 146.357C40.4771 145.605 41.2276 144.12 41.2276 142.56C41.2276 140.325 39.6461 138.277 36.5566 138.277H29.3353V151.43H32.2422V146.883Z" fill="black"/>
<rect x="134" y="143" width="3.476" height="3.48149" fill="#718096"/>
<path d="M151.954 138.186H153.606V147.174C153.606 148.102 153.386 148.931 152.946 149.66C152.511 150.385 151.896 150.957 151.101 151.377C150.306 151.792 149.373 152 148.303 152C147.233 152 146.3 151.792 145.505 151.377C144.71 150.957 144.093 150.385 143.653 149.66C143.218 148.931 143 148.102 143 147.174V138.186H144.652V147.042C144.652 147.705 144.799 148.295 145.092 148.812C145.385 149.324 145.802 149.729 146.344 150.025C146.891 150.316 147.543 150.462 148.303 150.462C149.062 150.462 149.715 150.316 150.261 150.025C150.808 149.729 151.225 149.324 151.514 148.812C151.807 148.295 151.954 147.705 151.954 147.042V138.186Z" fill="#323A47"/>
<path d="M164.554 141.58C164.474 140.908 164.15 140.386 163.581 140.015C163.013 139.644 162.316 139.458 161.489 139.458C160.885 139.458 160.357 139.556 159.904 139.75C159.455 139.944 159.105 140.212 158.851 140.552C158.603 140.892 158.478 141.279 158.478 141.712C158.478 142.074 158.565 142.386 158.738 142.647C158.916 142.903 159.142 143.117 159.418 143.29C159.693 143.458 159.982 143.597 160.284 143.707C160.586 143.813 160.863 143.9 161.116 143.966L162.502 144.337C162.857 144.43 163.253 144.558 163.688 144.722C164.128 144.885 164.547 145.108 164.947 145.391C165.351 145.67 165.684 146.027 165.946 146.465C166.208 146.902 166.339 147.439 166.339 148.076C166.339 148.809 166.146 149.472 165.76 150.064C165.378 150.657 164.818 151.127 164.081 151.476C163.348 151.825 162.458 152 161.41 152C160.432 152 159.586 151.843 158.871 151.529C158.161 151.216 157.601 150.778 157.193 150.217C156.788 149.656 156.56 149.004 156.506 148.261H158.212C158.256 148.774 158.429 149.198 158.731 149.534C159.038 149.866 159.424 150.113 159.891 150.277C160.361 150.436 160.868 150.515 161.41 150.515C162.04 150.515 162.606 150.414 163.108 150.21C163.61 150.003 164.008 149.715 164.301 149.348C164.594 148.977 164.74 148.544 164.74 148.049C164.74 147.598 164.614 147.232 164.361 146.949C164.108 146.666 163.774 146.436 163.361 146.259C162.948 146.083 162.502 145.928 162.022 145.795L160.344 145.318C159.278 145.013 158.434 144.578 157.812 144.012C157.19 143.447 156.879 142.706 156.879 141.792C156.879 141.032 157.086 140.369 157.499 139.803C157.916 139.233 158.476 138.791 159.178 138.477C159.884 138.159 160.672 138 161.543 138C162.422 138 163.204 138.157 163.888 138.471C164.572 138.78 165.114 139.204 165.513 139.743C165.917 140.283 166.131 140.895 166.153 141.58H164.554Z" fill="#323A47"/>
<path d="M173.454 151.761H169.243V138.186H173.64C174.964 138.186 176.096 138.457 177.038 139.001C177.979 139.54 178.701 140.316 179.203 141.328C179.705 142.335 179.956 143.542 179.956 144.947C179.956 146.361 179.702 147.579 179.196 148.599C178.69 149.616 177.953 150.398 176.984 150.946C176.016 151.49 174.839 151.761 173.454 151.761ZM170.895 150.303H173.347C174.475 150.303 175.41 150.086 176.152 149.653C176.893 149.22 177.446 148.604 177.81 147.804C178.175 147.004 178.357 146.052 178.357 144.947C178.357 143.851 178.177 142.908 177.817 142.116C177.457 141.321 176.92 140.711 176.205 140.287C175.49 139.858 174.599 139.644 173.534 139.644H170.895V150.303Z" fill="#323A47"/>
<rect x="32.5" y="0.5" width="115" height="115" rx="14.5" fill="url(#paint0_linear_2690_1490)" stroke="#DADADA"/>
<path d="M127.74 34.9841H102.58V43.2698H127.74V34.9841ZM85.8065 43.2698H77.4198V51.5556H85.8065V43.2698ZM77.4198 84.6984H85.8065V59.8413H77.4198V84.6984ZM94.1933 43.2698V51.5556H102.58V43.2698H94.1933ZM94.1933 84.6984H102.58V59.8413H94.1933V84.6984ZM94.1933 34.9841H85.8065V43.2698H94.1933V34.9841ZM52.2539 34.9841V43.2698H77.4198V34.9841H52.2539ZM127.746 59.8413V51.5556H102.58V59.8413H127.746ZM85.8121 51.5556V59.8413H94.1933V51.5556H85.8121ZM52.2594 51.5556V59.8413H77.4253V51.5556H52.2594Z" fill="white"/>
<defs>
<linearGradient id="paint0_linear_2690_1490" x1="55.0159" y1="-3.17965e-06" x2="139.714" y2="121.524" gradientUnits="userSpaceOnUse">
<stop stop-color="#8F08F9"/>
<stop offset="1" stop-color="#4A12EB"/>
</linearGradient>
</defs>
</svg>
