<svg width="33" height="33" viewBox="0 0 33 33" fill="none" xmlns="http://www.w3.org/2000/svg">
<circle cx="16.5" cy="16.5" r="16.5" fill="#0052FF"/>
<path d="M14.75 19.8168V19.6818C14.7595 18.8011 14.8471 18.1004 15.0128 17.5795C15.1832 17.0587 15.4247 16.6373 15.7372 16.3153C16.0497 15.9934 16.4261 15.6998 16.8665 15.4347C17.1506 15.2547 17.4063 15.0535 17.6335 14.831C17.8608 14.6084 18.0407 14.3527 18.1733 14.0639C18.3059 13.7751 18.3722 13.4555 18.3722 13.1051C18.3722 12.6837 18.2727 12.3191 18.0739 12.0114C17.875 11.7036 17.6098 11.4669 17.2784 11.3011C16.9517 11.1307 16.5871 11.0455 16.1847 11.0455C15.8201 11.0455 15.4721 11.1212 15.1406 11.2727C14.8092 11.4242 14.5346 11.661 14.3168 11.983C14.099 12.3002 13.9735 12.7098 13.9403 13.2116H11.7812C11.8144 12.3594 12.0298 11.6397 12.4276 11.0526C12.8253 10.4607 13.3509 10.0133 14.0043 9.71023C14.6624 9.4072 15.3892 9.25568 16.1847 9.25568C17.0559 9.25568 17.8182 9.41903 18.4716 9.74574C19.125 10.0677 19.6316 10.5199 19.9915 11.1023C20.3561 11.6799 20.5384 12.3546 20.5384 13.1264C20.5384 13.6567 20.4555 14.1349 20.2898 14.5611C20.1241 14.9825 19.8873 15.3589 19.5795 15.6903C19.2765 16.0218 18.9119 16.3153 18.4858 16.571C18.0833 16.822 17.7566 17.0824 17.5057 17.3523C17.2595 17.6222 17.0795 17.9418 16.9659 18.3111C16.8523 18.6804 16.7907 19.1373 16.7812 19.6818V19.8168H14.75ZM15.8224 24.1349C15.4342 24.1349 15.1004 23.9976 14.821 23.723C14.5417 23.4437 14.402 23.1075 14.402 22.7145C14.402 22.3262 14.5417 21.9948 14.821 21.7202C15.1004 21.4408 15.4342 21.3011 15.8224 21.3011C16.206 21.3011 16.5374 21.4408 16.8168 21.7202C17.1009 21.9948 17.2429 22.3262 17.2429 22.7145C17.2429 22.9749 17.1766 23.214 17.044 23.4318C16.9162 23.6449 16.7457 23.8153 16.5327 23.9432C16.3196 24.071 16.0829 24.1349 15.8224 24.1349Z" fill="white"/>
</svg>
