<svg width="1047" height="296" viewBox="0 0 1047 296" fill="none" xmlns="http://www.w3.org/2000/svg">
<path d="M645.66 115.254H632.038V75.4097H645.691C659.932 75.4097 666.407 76.7002 666.407 95.4313C666.407 112.666 660.031 115.285 645.691 115.285L645.66 115.254ZM647.577 130.228C671.592 130.228 682.55 122.661 682.55 95.4618C682.55 66.1702 670.493 60.4966 647.577 60.4966H616.598V130.228H647.577ZM604.144 114.788H564.765V60.4966H549.325V130.228H604.113L604.144 114.788ZM500.241 116.781C485.496 116.781 479.815 113.796 479.815 95.4618C479.815 76.4329 485.496 73.9436 500.241 73.9436C514.986 73.9436 520.759 76.5322 520.759 95.4618C520.759 113.788 514.986 116.781 500.241 116.781ZM500.241 131.725C525.241 131.725 536.894 123.654 536.894 95.4618C536.894 66.1702 524.141 59 500.241 59C476.34 59 463.68 66.1702 463.68 95.4618C463.68 123.654 475.233 131.725 500.241 131.725ZM451.225 130.198V60.4661H435.793V87.696H400.92V60.4661H385.48V130.198H400.92V103.006H435.793V130.198H451.225ZM339.45 131.725C364.855 131.725 371.926 123.555 371.926 109.512C371.926 96.6606 365.053 92.1783 351.4 89.5821L332.31 85.9015C326.14 84.7027 323.842 82.9082 323.842 79.3193C323.842 75.9366 326.438 72.9509 339.488 72.9509C349.949 72.9509 354.76 75.0355 355.325 84.3056H371.269C370.567 65.4753 360.709 59 339.29 59C315.679 59 307.806 67.9646 307.806 79.6171C307.806 91.2697 313.488 97.1799 325.835 99.6387L346.361 103.823C351.637 104.915 355.722 105.618 355.722 110.398C355.722 115.178 352.668 117.766 339.389 117.766C328.431 117.766 323.353 115.178 322.949 105.717H306.111C306.31 124.646 316.175 131.679 339.488 131.679L339.45 131.725ZM294.856 114.743H248.46V103.006H293.764V87.696H248.46V75.906H294.275V60.4661H233.02V130.198H294.787L294.856 114.743ZM138.876 130.198V60.4661H123.436V87.696H88.5698V60.4661H73.1298V130.198H88.5698V103.006H123.436V130.198H138.876ZM62.1646 60.4661H0V75.906H23.3127V130.198H38.7221V75.906H62.1646V60.4661ZM171.252 90.6511V75.906H194.496C200.177 75.906 203.56 79.2888 203.56 83.374C203.56 87.4593 200.177 90.6511 194.496 90.6511H171.252ZM171.252 106.091H190.976L203.827 130.198H221.566L206.92 103.304C214.991 99.318 218.977 91.4453 218.977 83.1755C218.977 71.3245 210.577 60.4661 194.168 60.4661H155.812V130.198H171.252V106.091Z" fill="black"/>
<path d="M898.048 295.118C979.542 295.118 1045.61 229.054 1045.61 147.559C1045.61 66.0645 979.542 0 898.048 0C816.553 0 750.488 66.0645 750.488 147.559C750.488 229.054 816.553 295.118 898.048 295.118Z" fill="#BD00FF"/>
<path d="M932.776 71.8799H914.68V86.6275C914.474 86.7073 914.27 86.7882 914.066 86.8702C906.333 89.9756 900.247 94.2952 895.81 99.8292C891.416 105.363 889.241 111.833 889.285 119.238C889.241 128.275 892.515 135.462 899.105 140.796C905.696 146.131 914.681 150.053 926.06 152.561L940.757 155.905C945.678 156.98 949.83 158.175 953.213 159.488C956.64 160.802 959.232 162.395 960.99 164.266C962.791 166.137 963.692 168.446 963.692 171.193C963.692 174.14 962.703 176.747 960.726 179.017C958.749 181.286 955.959 183.058 952.356 184.332C948.798 185.606 944.602 186.243 939.769 186.243C934.848 186.243 930.432 185.566 926.522 184.212C922.655 182.819 919.558 180.768 917.229 178.061C914.944 175.314 913.648 171.89 913.341 167.789H885.726C885.946 176.588 888.297 183.973 892.778 189.945C897.304 195.877 903.587 200.356 911.627 203.382C912.623 203.755 913.641 204.105 914.68 204.432V218.253H932.776V207.679C935.142 207.84 937.582 207.921 940.098 207.921C941.924 207.921 943.706 207.879 945.443 207.797V218.253H963.539V205.009C965.166 204.543 966.733 204.02 968.239 203.442C976.06 200.416 982.036 196.176 986.166 190.722C990.34 185.227 992.449 178.738 992.493 171.253C992.449 166.157 991.416 161.638 989.395 157.697C987.418 153.755 984.628 150.332 981.025 147.425C977.422 144.519 973.16 142.07 968.239 140.08C963.319 138.089 957.914 136.497 952.027 135.302L939.9 132.675C936.957 132.077 934.189 131.361 931.596 130.525C929.004 129.649 926.719 128.634 924.742 127.479C922.765 126.285 921.205 124.871 920.063 123.239C918.965 121.607 918.459 119.696 918.547 117.506C918.547 114.878 919.382 112.529 921.051 110.459C922.765 108.389 925.225 106.777 928.433 105.622C931.64 104.428 935.573 103.83 940.23 103.83C947.084 103.83 952.51 105.164 956.508 107.832C960.507 110.499 962.769 114.241 963.297 119.059H990.647C990.515 111.773 988.363 105.363 984.189 99.8292C980.015 94.2952 974.171 89.9756 966.658 86.8702C965.642 86.4478 964.602 86.0541 963.539 85.6891V71.8799H945.443V82.3476C943.808 82.2573 942.136 82.2121 940.428 82.2121C937.802 82.2121 935.251 82.3226 932.776 82.5436V71.8799Z" fill="white"/>
<path fill-rule="evenodd" clip-rule="evenodd" d="M848.224 109.477H822.202V135.499H796.181V161.521H822.202V187.543H848.224V161.521H874.246V135.499H848.224V109.477ZM848.224 135.499V161.521H822.202V135.499H848.224Z" fill="white"/>
<path d="M466.614 192.341V198.023H444V192.341H466.614ZM450.591 181.886H457.296V223.477C457.296 225.371 457.57 226.792 458.119 227.739C458.688 228.667 459.407 229.292 460.279 229.614C461.169 229.917 462.106 230.068 463.091 230.068C463.83 230.068 464.436 230.03 464.909 229.955C465.383 229.86 465.761 229.784 466.046 229.727L467.409 235.75C466.955 235.92 466.32 236.091 465.506 236.261C464.691 236.451 463.659 236.545 462.409 236.545C460.515 236.545 458.659 236.138 456.841 235.324C455.042 234.509 453.546 233.269 452.352 231.602C451.178 229.936 450.591 227.833 450.591 225.295V181.886Z" fill="#323A47"/>
<path d="M484.341 209.727V235.977H477.636V177.795H484.341V199.159H484.909C485.932 196.905 487.466 195.116 489.511 193.79C491.576 192.445 494.322 191.773 497.75 191.773C500.724 191.773 503.328 192.369 505.563 193.562C507.797 194.737 509.53 196.545 510.761 198.989C512.011 201.413 512.636 204.5 512.636 208.25V235.977H505.932V208.705C505.932 205.239 505.032 202.559 503.233 200.665C501.453 198.752 498.981 197.795 495.818 197.795C493.621 197.795 491.652 198.259 489.909 199.187C488.186 200.116 486.822 201.47 485.818 203.25C484.833 205.03 484.341 207.189 484.341 209.727Z" fill="#323A47"/>
<path d="M563.993 177.795H571.038V216.318C571.038 220.295 570.101 223.847 568.226 226.972C566.37 230.078 563.747 232.53 560.357 234.33C556.966 236.11 552.989 237 548.425 237C543.86 237 539.883 236.11 536.493 234.33C533.103 232.53 530.47 230.078 528.595 226.972C526.739 223.847 525.811 220.295 525.811 216.318V177.795H532.857V215.75C532.857 218.591 533.482 221.119 534.732 223.335C535.982 225.532 537.762 227.265 540.073 228.534C542.402 229.784 545.186 230.409 548.425 230.409C551.663 230.409 554.448 229.784 556.777 228.534C559.107 227.265 560.887 225.532 562.118 223.335C563.368 221.119 563.993 218.591 563.993 215.75V177.795Z" fill="#323A47"/>
<path d="M616.926 192.341C616.585 189.462 615.203 187.227 612.779 185.636C610.354 184.045 607.381 183.25 603.858 183.25C601.282 183.25 599.029 183.667 597.097 184.5C595.184 185.333 593.688 186.479 592.608 187.937C591.547 189.396 591.017 191.053 591.017 192.909C591.017 194.462 591.386 195.797 592.125 196.915C592.883 198.013 593.849 198.932 595.023 199.67C596.197 200.39 597.428 200.987 598.716 201.46C600.004 201.915 601.188 202.284 602.267 202.568L608.176 204.159C609.691 204.557 611.377 205.106 613.233 205.807C615.108 206.508 616.898 207.464 618.602 208.676C620.326 209.869 621.746 211.403 622.864 213.278C623.981 215.153 624.54 217.455 624.54 220.182C624.54 223.326 623.716 226.167 622.068 228.705C620.44 231.242 618.053 233.259 614.909 234.756C611.784 236.252 607.987 237 603.517 237C599.35 237 595.743 236.328 592.693 234.983C589.663 233.638 587.277 231.763 585.534 229.358C583.811 226.953 582.835 224.159 582.608 220.977H589.881C590.07 223.174 590.809 224.992 592.097 226.432C593.404 227.852 595.051 228.913 597.04 229.614C599.047 230.295 601.207 230.636 603.517 230.636C606.207 230.636 608.621 230.201 610.761 229.33C612.902 228.439 614.597 227.208 615.847 225.636C617.097 224.045 617.722 222.189 617.722 220.068C617.722 218.136 617.182 216.564 616.102 215.352C615.023 214.14 613.602 213.155 611.841 212.398C610.08 211.64 608.176 210.977 606.131 210.409L598.972 208.364C594.426 207.057 590.828 205.191 588.176 202.767C585.525 200.343 584.199 197.17 584.199 193.25C584.199 189.992 585.08 187.152 586.841 184.727C588.621 182.284 591.008 180.39 594 179.045C597.011 177.682 600.373 177 604.085 177C607.835 177 611.169 177.672 614.085 179.017C617.002 180.343 619.313 182.161 621.017 184.472C622.741 186.782 623.65 189.405 623.744 192.341H616.926Z" fill="#323A47"/>
<path d="M654.078 235.977H636.124V177.795H654.874C660.518 177.795 665.347 178.96 669.362 181.29C673.377 183.6 676.455 186.924 678.595 191.261C680.735 195.58 681.806 200.75 681.806 206.773C681.806 212.833 680.726 218.051 678.567 222.426C676.408 226.782 673.264 230.134 669.135 232.483C665.006 234.812 659.987 235.977 654.078 235.977ZM643.169 229.727H653.624C658.434 229.727 662.421 228.799 665.584 226.943C668.747 225.087 671.105 222.445 672.658 219.017C674.211 215.589 674.987 211.508 674.987 206.773C674.987 202.076 674.22 198.032 672.686 194.642C671.152 191.233 668.86 188.619 665.811 186.801C662.762 184.964 658.965 184.045 654.419 184.045H643.169V229.727Z" fill="#323A47"/>
</svg>
