<svg width="232" height="15" viewBox="0 0 232 15" fill="none" xmlns="http://www.w3.org/2000/svg">
<path d="M21.9984 0H14.6661V2.5H21.9984V0ZM9.77795 2.5H7.33387V5H9.77795V2.5ZM7.33387 15H9.77795V7.5H7.33387V15ZM12.222 2.5V5H14.6661V2.5H12.222ZM12.222 15H14.6661V7.5H12.222V15ZM12.222 0H9.77795V2.5H12.222V0ZM0 0V2.5H7.33387V0H0ZM22 7.5V5H14.6661V7.5H22ZM9.77956 5V7.5H12.222V5H9.77956ZM0.00160251 5V7.5H7.33547V5H0.00160251Z" fill="#7C08F9"/>
<path d="M153.561 11.611H150.996V4.09529H153.566C156.248 4.09529 157.467 4.3387 157.467 7.87185C157.467 11.1227 156.266 11.6167 153.566 11.6167L153.561 11.611ZM153.922 14.4355C158.443 14.4355 160.506 13.0081 160.506 7.87761C160.506 2.35247 158.236 1.28231 153.922 1.28231H148.089V14.4355H153.922ZM145.744 11.5231H138.33V1.28231H135.423V14.4355H145.738L145.744 11.5231ZM126.182 11.899C123.406 11.899 122.336 11.3359 122.336 7.87761C122.336 4.28829 123.406 3.81874 126.182 3.81874C128.958 3.81874 130.045 4.30701 130.045 7.87761C130.045 11.3344 128.958 11.899 126.182 11.899ZM126.182 14.7178C130.889 14.7178 133.083 13.1953 133.083 7.87761C133.083 2.35247 130.682 1 126.182 1C121.682 1 119.299 2.35247 119.299 7.87761C119.299 13.1953 121.474 14.7178 126.182 14.7178ZM116.954 14.4297V1.27654H114.048V6.41279H107.482V1.27654H104.576V14.4297H107.482V9.30066H114.048V14.4297H116.954ZM95.9094 14.7178C100.692 14.7178 102.024 13.1766 102.024 10.5278C102.024 8.10375 100.73 7.25827 98.1593 6.76855L94.5652 6.07431C93.4036 5.84818 92.9708 5.5097 92.9708 4.83274C92.9708 4.19467 93.4596 3.6315 95.9166 3.6315C97.8862 3.6315 98.7919 4.02471 98.8983 5.77328H101.9C101.768 2.2214 99.9118 1 95.8792 1C91.434 1 89.9518 2.69096 89.9518 4.88891C89.9518 7.08687 91.0214 8.20169 93.3461 8.66548L97.2105 9.45478C98.2039 9.66075 98.973 9.79326 98.973 10.6949C98.973 11.5966 98.398 12.0848 95.8979 12.0848C93.8349 12.0848 92.8788 11.5966 92.8026 9.81198H89.6326C89.67 13.3826 91.5274 14.7091 95.9166 14.7091L95.9094 14.7178ZM87.5135 11.5145H78.7783V9.30066H87.3079V6.41279H78.7783V4.18891H87.4042V1.27654H75.8714V14.4297H87.5006L87.5135 11.5145ZM58.1466 14.4297V1.27654H55.2397V6.41279H48.6753V1.27654H45.7684V14.4297H48.6753V9.30066H55.2397V14.4297H58.1466ZM43.7039 1.27654H32V4.18891H36.3892V14.4297H39.2903V4.18891H43.7039V1.27654ZM64.2422 6.9702V4.18891H68.6184C69.6881 4.18891 70.3249 4.82698 70.3249 5.59756C70.3249 6.36814 69.6881 6.9702 68.6184 6.9702H64.2422ZM64.2422 9.88257H67.9557L70.3753 14.4297H73.7149L70.9575 9.35684C72.4771 8.60498 73.2276 7.11999 73.2276 5.56011C73.2276 3.3247 71.6461 1.27654 68.5566 1.27654H61.3353V14.4297H64.2422V9.88257Z" fill="black"/>
<rect x="168.621" y="5.71313" width="3.476" height="3.48149" fill="#718096"/>
<path d="M180.125 3.32277V2.14934H188.305V3.32277H184.875V13.0728H183.555V3.32277H180.125Z" fill="#323A47"/>
<path d="M190.493 13.0728V2.14934H191.814V7.01371H197.629V2.14934H198.95V13.0728H197.629V8.18714H191.814V13.0728H190.493Z" fill="#323A47"/>
<path d="M208.901 2.14934H210.221V9.38189C210.221 10.1286 210.046 10.7953 209.694 11.382C209.346 11.9652 208.855 12.4257 208.219 12.7635C207.584 13.0977 206.838 13.2649 205.982 13.2649C205.127 13.2649 204.381 13.0977 203.746 12.7635C203.11 12.4257 202.617 11.9652 202.265 11.382C201.917 10.7953 201.744 10.1286 201.744 9.38189V2.14934H203.064V9.27522C203.064 9.80859 203.181 10.2833 203.416 10.6993C203.65 11.1118 203.984 11.4372 204.417 11.6754C204.854 11.9101 205.375 12.0274 205.982 12.0274C206.59 12.0274 207.111 11.9101 207.548 11.6754C207.985 11.4372 208.319 11.1118 208.549 10.6993C208.784 10.2833 208.901 9.80859 208.901 9.27522V2.14934Z" fill="#323A47"/>
<path d="M218.973 4.88022C218.909 4.33973 218.65 3.92015 218.196 3.62146C217.741 3.32277 217.184 3.17342 216.523 3.17342C216.041 3.17342 215.618 3.25165 215.256 3.40811C214.897 3.56456 214.617 3.77969 214.415 4.05349C214.216 4.32729 214.116 4.63842 214.116 4.98689C214.116 5.27847 214.186 5.52916 214.324 5.73895C214.466 5.94519 214.647 6.11764 214.867 6.25632C215.087 6.39144 215.318 6.50345 215.56 6.59235C215.801 6.67769 216.023 6.74703 216.225 6.80036L217.333 7.09905C217.617 7.17372 217.933 7.27684 218.281 7.40841C218.632 7.53997 218.968 7.71954 219.287 7.94712C219.61 8.17113 219.877 8.45916 220.086 8.81118C220.296 9.16321 220.4 9.59524 220.4 10.1073C220.4 10.6975 220.246 11.2309 219.937 11.7074C219.632 12.1839 219.184 12.5626 218.595 12.8435C218.009 13.1244 217.297 13.2649 216.46 13.2649C215.679 13.2649 215.002 13.1386 214.431 12.8862C213.863 12.6337 213.415 12.2817 213.089 11.8301C212.766 11.3785 212.583 10.854 212.54 10.2566H213.903C213.939 10.6691 214.077 11.0105 214.319 11.2807C214.564 11.5474 214.873 11.7465 215.245 11.8781C215.622 12.0061 216.026 12.0701 216.46 12.0701C216.964 12.0701 217.416 11.9883 217.818 11.8247C218.219 11.6576 218.536 11.4265 218.771 11.1314C219.005 10.8327 219.122 10.4842 219.122 10.0859C219.122 9.72325 219.021 9.42812 218.819 9.20054C218.616 8.97297 218.35 8.78807 218.02 8.64584C217.69 8.5036 217.333 8.37915 216.949 8.27247L215.608 7.88845C214.755 7.64309 214.081 7.29285 213.584 6.8377C213.087 6.38255 212.838 5.78695 212.838 5.0509C212.838 4.4393 213.003 3.90592 213.334 3.45078C213.667 2.99208 214.115 2.63649 214.676 2.38403C215.24 2.12801 215.87 2 216.566 2C217.269 2 217.894 2.12623 218.441 2.3787C218.987 2.6276 219.42 2.96896 219.74 3.40277C220.063 3.83658 220.233 4.32906 220.251 4.88022H218.973Z" fill="#323A47"/>
<path d="M226.087 13.0728H222.722V2.14934H226.236C227.294 2.14934 228.2 2.36803 228.952 2.80539C229.705 3.2392 230.282 3.86325 230.683 4.67754C231.084 5.48826 231.285 6.459 231.285 7.58976C231.285 8.72762 231.082 9.70725 230.678 10.5286C230.273 11.3465 229.684 11.9759 228.91 12.4168C228.136 12.8542 227.195 13.0728 226.087 13.0728ZM224.042 11.8994H226.002C226.904 11.8994 227.651 11.7252 228.244 11.3767C228.837 11.0282 229.279 10.5322 229.57 9.8886C229.861 9.24499 230.007 8.47871 230.007 7.58976C230.007 6.70791 229.863 5.94874 229.575 5.31225C229.288 4.6722 228.858 4.1815 228.287 3.84014C227.715 3.49522 227.003 3.32277 226.151 3.32277H224.042V11.8994Z" fill="#323A47"/>
</svg>
