<svg width="42" height="30" viewBox="0 0 42 30" fill="none" xmlns="http://www.w3.org/2000/svg">
<path d="M40.9971 1H27.6657V5.66667H40.9971V1ZM18.7781 5.66667H14.3343V10.3333H18.7781V5.66667ZM14.3343 29H18.7781V15H14.3343V29ZM23.2219 5.66667V10.3333H27.6657V5.66667H23.2219ZM23.2219 29H27.6657V15H23.2219V29ZM23.2219 1H18.7781V5.66667H23.2219V1ZM1 1V5.66667H14.3343V1H1ZM41 15V10.3333H27.6657V15H41ZM18.781 10.3333V15H23.2219V10.3333H18.781ZM1.00291 10.3333V15H14.3372V10.3333H1.00291Z" fill="#7C08F9"/>
<path d="M27.6657 5.66667V1H40.9971V5.66667H27.6657ZM27.6657 5.66667V10.3333M27.6657 5.66667H23.2219M18.7781 5.66667H14.3343M18.7781 5.66667V10.3333H14.3343V5.66667M18.7781 5.66667V1H23.2219V5.66667M18.7781 5.66667H23.2219M14.3343 5.66667H1V1H14.3343V5.66667ZM23.2219 5.66667V10.3333M23.2219 10.3333H27.6657M23.2219 10.3333V15M23.2219 10.3333H18.781V15H23.2219M27.6657 10.3333H41V15H27.6657M27.6657 10.3333V15M27.6657 15V29H23.2219V15M27.6657 15H23.2219M14.3343 29H18.7781V15H14.3343V29ZM1.00291 10.3333V15H14.3372V10.3333H1.00291Z" stroke="#7C08F9" stroke-width="0.5"/>
</svg>
