<svg width="37" height="30" viewBox="0 0 37 30" fill="none" xmlns="http://www.w3.org/2000/svg">
<path d="M11.6358 30C25.5981 30 33.2349 18.4571 33.2349 8.44716C33.2349 8.11931 33.2349 7.79293 33.2127 7.46803C34.6983 6.39572 35.9808 5.068 37 3.54705C35.6146 4.15993 34.1449 4.56168 32.6399 4.73885C34.2247 3.79228 35.4108 2.30329 35.9773 0.549085C34.4872 1.4315 32.857 2.05334 31.157 2.38774C30.0124 1.17332 28.4987 0.36916 26.85 0.0997056C25.2013 -0.169749 23.5095 0.110521 22.0365 0.897145C20.5635 1.68377 19.3914 2.93289 18.7016 4.45122C18.0117 5.96954 17.8425 7.67242 18.2203 9.29634C15.2022 9.14527 12.2497 8.3626 9.55441 6.99914C6.85911 5.63568 4.48126 3.7219 2.5752 1.38202C1.60446 3.0496 1.30714 5.02367 1.74378 6.90231C2.18042 8.78095 3.31819 10.4229 4.92544 11.4939C3.71732 11.4585 2.5355 11.1333 1.48 10.5457V10.6417C1.48048 12.3906 2.08719 14.0855 3.19722 15.4389C4.30725 16.7923 5.85226 17.7209 7.5702 18.0672C6.45262 18.3714 5.28001 18.4159 4.14252 18.1972C4.6278 19.7022 5.57224 21.0183 6.84383 21.9615C8.11541 22.9046 9.65057 23.4277 11.2347 23.4577C9.66076 24.6921 7.85836 25.6049 5.9306 26.1436C4.00284 26.6824 1.98754 26.8366 0 26.5974C3.47158 28.8203 7.51088 29.9995 11.6358 29.9941" fill="#7C08F9"/>
</svg>
