<svg width="39" height="28" viewBox="0 0 39 28" fill="none" xmlns="http://www.w3.org/2000/svg">
<path d="M38.1845 4.29C37.9641 3.4603 37.5295 2.70306 36.9244 2.09407C36.3193 1.48507 35.5649 1.04569 34.7366 0.819886C31.6875 9.68575e-08 19.5 0 19.5 0C19.5 0 7.3125 9.68575e-08 4.26341 0.819886C3.43514 1.04569 2.6807 1.48507 2.07559 2.09407C1.47049 2.70306 1.03595 3.4603 0.815455 4.29C9.68575e-08 7.35239 0 13.7386 0 13.7386C0 13.7386 9.68575e-08 20.1249 0.815455 23.1873C1.03595 24.017 1.47049 24.7742 2.07559 25.3832C2.6807 25.9922 3.43514 26.4316 4.26341 26.6574C7.3125 27.4773 19.5 27.4773 19.5 27.4773C19.5 27.4773 31.6875 27.4773 34.7366 26.6574C35.5649 26.4316 36.3193 25.9922 36.9244 25.3832C37.5295 24.7742 37.9641 24.017 38.1845 23.1873C39 20.1249 39 13.7386 39 13.7386C39 13.7386 39 7.35239 38.1845 4.29Z" fill="#7C08F9"/>
<path d="M15.5117 19.5375V7.93945L25.7049 13.7385L15.5117 19.5375Z" fill="#FEFEFE"/>
</svg>
