<svg width="54" height="53" viewBox="0 0 54 53" fill="none" xmlns="http://www.w3.org/2000/svg">
<path d="M27.1914 53C41.827 53 53.6914 41.1355 53.6914 26.5C53.6914 11.8645 41.827 0 27.1914 0C12.5559 0 0.691406 11.8645 0.691406 26.5C0.691406 41.1355 12.5559 53 27.1914 53Z" fill="#BD00FF"/>
<path d="M33.7407 13H30.4223V15.7204C30.3846 15.7351 30.347 15.75 30.3096 15.7651C28.8915 16.3379 27.7756 17.1347 26.9618 18.1555C26.1561 19.1763 25.7573 20.3697 25.7653 21.7357C25.7573 23.4027 26.3575 24.7283 27.5661 25.7124C28.7747 26.6964 30.4224 27.4198 32.5092 27.8825L35.2043 28.4994C36.1067 28.6976 36.8681 28.918 37.4885 29.1603C38.117 29.4027 38.5924 29.6964 38.9147 30.0416C39.245 30.3867 39.4102 30.8127 39.4102 31.3194C39.4102 31.8629 39.2289 32.3439 38.8663 32.7625C38.5037 33.1811 37.9921 33.5079 37.3314 33.7429C36.6788 33.9779 35.9093 34.0954 35.023 34.0954C34.1206 34.0954 33.3109 33.9705 32.5938 33.7209C31.8848 33.4638 31.3167 33.0856 30.8897 32.5862C30.4707 32.0795 30.233 31.4479 30.1766 30.6915H25.1127C25.153 32.3145 25.584 33.6768 26.4059 34.7784C27.2358 35.8726 28.3879 36.6988 29.8624 37.2569C30.0451 37.3257 30.2317 37.3902 30.4223 37.4506V40H33.7407V38.0495C34.1746 38.0792 34.6221 38.0941 35.0835 38.0941C35.4183 38.0941 35.745 38.0865 36.0636 38.0713V40H39.3821V37.557C39.6805 37.471 39.9678 37.3746 40.2441 37.2679C41.6783 36.7098 42.774 35.9277 43.5314 34.9216C44.2968 33.9081 44.6836 32.7111 44.6916 31.3304C44.6836 30.3904 44.4942 29.5569 44.1236 28.8298C43.761 28.1028 43.2494 27.4712 42.5887 26.9351C41.928 26.399 41.1465 25.9474 40.2441 25.5802C39.3417 25.213 38.3506 24.9192 37.271 24.6989L35.0472 24.2142C34.5074 24.1041 33.9998 23.9719 33.5244 23.8177C33.049 23.6561 32.6301 23.4688 32.2675 23.2559C31.9049 23.0355 31.6189 22.7748 31.4094 22.4737C31.208 22.1726 31.1153 21.8201 31.1314 21.4162C31.1314 20.9315 31.2845 20.4982 31.5907 20.1164C31.9049 19.7345 32.3561 19.437 32.9443 19.2241C33.5325 19.0038 34.2536 18.8936 35.1076 18.8936C36.3646 18.8936 37.3596 19.1396 38.0928 19.6317C38.826 20.1237 39.241 20.814 39.3377 21.7026H44.3532C44.3291 20.3587 43.9343 19.1763 43.1688 18.1555C42.4034 17.1347 41.3318 16.3379 39.954 15.7651C39.7677 15.6872 39.5771 15.6146 39.3821 15.5473V13H36.0636V14.9309C35.7639 14.9142 35.4573 14.9059 35.1439 14.9059C34.6624 14.9059 34.1947 14.9263 33.7407 14.967V13Z" fill="white"/>
<path fill-rule="evenodd" clip-rule="evenodd" d="M18.2355 19.9353H13.4636V24.7353H8.69165V29.5353H13.4636V34.3353H18.2355V29.5353H23.0074V24.7353H18.2355V19.9353ZM18.2355 24.7353V29.5353H13.4636V24.7353H18.2355Z" fill="white"/>
</svg>
